<svg width="42" height="42" viewBox="0 0 42 42" fill="none" xmlns="http://www.w3.org/2000/svg">
<path fill-rule="evenodd" clip-rule="evenodd" d="M4.07662 17.787C4.23258 17.4765 4.50531 17.2405 4.835 17.1307C5.16469 17.021 5.52444 17.0465 5.83537 17.2016L21 24.78L36.162 17.199C36.3162 17.1202 36.4846 17.0727 36.6573 17.0593C36.83 17.0458 37.0036 17.0667 37.1682 17.1207C37.3328 17.1747 37.4851 17.2607 37.6162 17.3738C37.7474 17.487 37.8549 17.6249 37.9325 17.7798C38.0101 17.9346 38.0563 18.1033 38.0684 18.2761C38.0805 18.4489 38.0583 18.6224 38.003 18.7866C37.9477 18.9507 37.8605 19.1023 37.7464 19.2326C37.6322 19.3629 37.4935 19.4693 37.338 19.5457L21.588 27.4207C21.4055 27.5122 21.2041 27.5598 21 27.5598C20.7958 27.5598 20.5945 27.5122 20.412 27.4207L4.662 19.5457C4.35149 19.3898 4.1155 19.117 4.00577 18.7874C3.89603 18.4577 3.92151 18.0979 4.07662 17.787Z" fill="white"/>
</svg>
